<?xml version="1.0" encoding="iso-8859-1"?>
<!-- Uploaded to: SVG Repo, www.svgrepo.com, Generator: SVG Repo Mixer Tools -->
<svg height="800px" width="800px" version="1.1" id="Layer_1" xmlns="http://www.w3.org/2000/svg" xmlns:xlink="http://www.w3.org/1999/xlink" 
	 viewBox="0 0 512 512" xml:space="preserve">
<path style="fill:#9DF1FD;" d="M256,512C114.837,512,0,397.157,0,256S114.837,0,256,0s256,114.843,256,256S397.163,512,256,512z"/>
<path style="fill:#87D7E4;" d="M512,256C512,114.843,397.163,0,256,0v512C397.163,512,512,397.157,512,256z"/>
<path style="fill:#7C84E8;" d="M256,33.391C133.25,33.391,33.391,133.256,33.391,256S133.25,478.609,256,478.609
	S478.609,378.744,478.609,256S378.75,33.391,256,33.391z"/>
<path style="fill:#515BE0;" d="M478.609,256c0-122.744-99.859-222.609-222.609-222.609v445.217
	C378.75,478.609,478.609,378.744,478.609,256z"/>
<path style="fill:#9DF1FD;" d="M180.098,341.429c-0.543,0-1.087-0.027-1.631-0.076C111.815,334.897,0,315.228,0,256
	c0-63.506,131.348-81.44,187.815-86.201c9.109-0.788,17.261,6.038,18.044,15.234c0.771,9.185-6.054,17.267-15.239,18.038
	C82.174,212.217,33.391,239.527,33.391,256c0,18.304,51.978,42.793,148.293,52.114c9.174,0.892,15.902,9.049,15.01,18.228
	C195.859,334.973,188.587,341.429,180.098,341.429z"/>
<path style="fill:#87D7E4;" d="M331.902,341.429c-8.489,0-15.761-6.457-16.598-15.087c-0.892-9.179,5.837-17.337,15.01-18.228
	c96.316-9.321,148.294-33.81,148.294-52.114c0-16.473-48.782-43.783-157.229-52.93c-9.185-0.771-16.011-8.853-15.239-18.038
	c0.782-9.196,8.957-15.994,18.044-15.234C380.652,174.56,512,192.494,512,256c0,59.228-111.815,78.897-178.468,85.354
	C332.989,341.403,332.446,341.429,331.902,341.429z"/>
<path style="fill:#E7ECFD;" d="M339.478,313.878v-230.4C339.478,37.398,302.08,0,256,0s-83.478,37.398-83.478,83.478v230.4
	c-21.258,21.816-33.391,50.977-33.391,81.252C139.13,459.576,191.555,512,256,512s116.87-52.424,116.87-116.87
	C372.87,364.856,360.736,335.694,339.478,313.878z"/>
<path style="fill:#DBE1F1;" d="M372.87,395.13C372.87,459.576,320.445,512,256,512V0c46.08,0,83.478,37.398,83.478,83.478v230.4
	C360.736,335.694,372.87,364.856,372.87,395.13z"/>
<path style="fill:#FF6243;" d="M272.696,367.304h-33.391V83.478c0-9.22,7.475-16.696,16.696-16.696l0,0
	c9.22,0,16.696,7.475,16.696,16.696V367.304z"/>
<path style="fill:#FF0C38;" d="M272.696,367.304V83.478c0-9.22-7.475-16.696-16.696-16.696v300.522H272.696z"/>
<path style="fill:#FF6243;" d="M256,445.217L256,445.217c-27.662,0-50.087-22.424-50.087-50.087l0,0
	c0-27.662,22.424-50.087,50.087-50.087l0,0c27.662,0,50.087,22.424,50.087,50.087l0,0C306.087,422.793,283.662,445.217,256,445.217z
	"/>
<path style="fill:#FF0C38;" d="M306.087,395.13c0-27.662-22.423-50.087-50.087-50.087v100.174
	C283.664,445.217,306.087,422.793,306.087,395.13z"/>
</svg>